<svg width="100" height="32" viewBox="0 0 100 32" fill="none" xmlns="http://www.w3.org/2000/svg">
<path fill-rule="evenodd" clip-rule="evenodd" d="M2.1582 20.9992V0.671143L11.5973 10.8718L21.0771 0.671143L30.4306 10.8189L39.8548 0.671143V21.0461L30.5365 31.3731L21.0771 21.1856L11.6176 31.3731L2.1582 20.9992Z" fill="#5B2E6E"/>
<path fill-rule="evenodd" clip-rule="evenodd" d="M6.88822 16.0221C7.86807 14.9618 11.0214 11.55 11.6176 10.9048C10.4195 9.6089 4.11304 2.78623 2.1582 0.671143C2.27745 1.05841 6.4087 14.466 6.88822 16.0221Z" fill="url(#paint0_linear_6_1382)"/>
<path fill-rule="evenodd" clip-rule="evenodd" d="M2.18734 0.672526L5.63544 4.37704L9.34379 16.2124L5.69834 17.3269L2.18734 0.672526Z" fill="url(#paint1_linear_6_1382)"/>
<path fill-rule="evenodd" clip-rule="evenodd" d="M6.88916 17.4624L5.49992 12.9198L10.6138 9.84621L12.6616 12.0811L6.88916 17.4624Z" fill="url(#paint2_linear_6_1382)"/>
<path fill-rule="evenodd" clip-rule="evenodd" d="M30.3955 10.8581L39.855 21.0461V0.671143L30.3955 10.8581Z" fill="url(#paint3_linear_6_1382)"/>
<path fill-rule="evenodd" clip-rule="evenodd" d="M30.4559 10.8715L32.4254 8.7291L39.8203 16.9902L39.7967 21.0618L30.4559 10.8715Z" fill="url(#paint4_linear_6_1382)"/>
<path fill-rule="evenodd" clip-rule="evenodd" d="M30.5365 31.3733L39.8547 21.0462L27.0068 7.09082L30.5365 31.3733Z" fill="url(#paint5_linear_6_1382)"/>
<path fill-rule="evenodd" clip-rule="evenodd" d="M21.0771 21.1858L30.5366 31.3733L27.0069 7.09082L21.0771 21.1858Z" fill="url(#paint6_linear_6_1382)"/>
<path fill-rule="evenodd" clip-rule="evenodd" d="M11.6177 31.3731L21.0771 21.1856V0.671143L11.6177 31.3731Z" fill="url(#paint7_linear_6_1382)"/>
<path fill-rule="evenodd" clip-rule="evenodd" d="M11.6177 31.3731L15.3168 27.3893L21.0771 6.66416V0.671143L11.6177 31.3731Z" fill="url(#paint8_linear_6_1382)"/>
<path fill-rule="evenodd" clip-rule="evenodd" d="M21.0771 21.1856L27.0069 7.09064L21.0771 0.671143V21.1856Z" fill="url(#paint9_linear_6_1382)"/>
<path fill-rule="evenodd" clip-rule="evenodd" d="M6.81738 16.0023C7.1412 17.0509 11.6183 31.3731 11.6183 31.3731L21.0771 0.671143L6.81738 16.0023Z" fill="url(#paint10_linear_6_1382)"/>
<path fill-rule="evenodd" clip-rule="evenodd" d="M6.45738 16.4122L9.81351 12.8072L14.495 28.2444L11.5864 31.3783L6.45738 16.4122Z" fill="url(#paint11_linear_6_1382)"/>
<path fill-rule="evenodd" clip-rule="evenodd" d="M2.1582 21.113L11.6176 31.3731L2.15859 0.671143L2.1582 21.113Z" fill="url(#paint12_linear_6_1382)"/>
<path fill-rule="evenodd" clip-rule="evenodd" d="M99.7179 19.7901L96.8942 16.4408L99.7179 13.0915C99.7731 12.9141 99.8429 12.7381 99.8591 12.5332C99.8429 12.0749 99.4519 11.6959 99.012 11.6959C98.7118 11.6959 98.4744 11.8177 98.306 11.975L95.9059 15.0452L93.3645 11.975C93.1961 11.8177 92.9587 11.6959 92.6586 11.6959C92.2187 11.6959 91.8277 12.0749 91.8115 12.5332C91.8277 12.7381 91.8975 12.9006 91.9527 13.0915L94.7764 16.4408L91.9527 19.7901C91.9254 19.8982 91.8696 19.993 91.8115 20.0692C91.716 20.5615 91.9952 21.0352 92.5174 21.1856C92.8191 21.2518 93.1682 21.1029 93.3645 20.767L95.9059 17.8363L98.306 20.767C98.5024 21.1029 98.8654 21.2518 99.1531 21.1856C99.6753 21.0352 99.9546 20.575 99.8591 20.0692C99.801 19.993 99.7451 19.8847 99.7179 19.7901ZM90.3996 12.5332C90.3996 12.0755 90.0171 11.6959 89.5525 11.6959C89.088 11.6959 88.7191 12.062 88.7054 12.5332C88.7054 12.5229 88.7054 12.5364 88.7054 12.5332C88.7054 12.5364 88.7054 12.55 88.7054 12.5332V20.3483C88.7054 20.318 88.7054 20.3315 88.7054 20.3483C88.7054 20.806 89.088 21.1856 89.5525 21.1856C90.0171 21.1856 90.3996 20.806 90.3996 20.3483C90.3996 20.318 90.3996 20.3044 90.3996 20.3483V12.5332C90.3996 12.5636 90.386 12.5636 90.3996 12.5332ZM76.5634 16.4408C76.5634 13.8108 74.4116 11.6959 71.7631 11.6959C69.1147 11.6959 66.9628 13.8243 66.9628 16.4408C66.9628 18.9623 68.9629 21.0094 71.4807 21.1856C71.5424 21.1585 71.5976 21.1856 71.6219 21.1856C72.1218 21.1856 72.508 20.806 72.469 20.3483C72.508 19.8842 72.1493 19.5181 71.7631 19.511C71.6941 19.491 71.6803 19.491 71.6219 19.511C71.6665 19.491 71.6665 19.491 71.6219 19.511C71.6528 19.491 71.6528 19.491 71.6219 19.511C70.3147 19.4368 69.2112 18.5692 68.7982 17.4176H75.5751C75.6668 17.3762 75.6806 17.3897 75.7163 17.4176C76.1634 17.3897 76.5496 17.0101 76.5634 16.5803C76.5634 16.5086 76.5496 16.4679 76.5634 16.4408ZM68.7982 15.743C69.1479 14.3834 70.3649 13.3706 71.9043 13.3706C73.3025 13.3706 74.5335 14.3834 74.8692 15.743H68.7982ZM66.1157 12.2541C65.9632 11.8742 65.492 11.6032 64.9862 11.6959C64.7435 11.8065 64.5495 12.0233 64.4214 12.2541L62.7272 18.5341L59.9035 15.0452C59.7815 14.8691 59.5736 14.7743 59.3388 14.7661C59.1024 14.7743 58.8945 14.8691 58.774 15.0452L55.9503 18.5341L54.2561 12.2541C54.1404 12.0233 53.9325 11.8065 53.6913 11.6959C53.1841 11.6032 52.7128 11.8742 52.5618 12.2541C52.5465 12.457 52.5604 12.5789 52.5618 12.6728L54.6796 20.6274C54.8057 20.8317 55.0136 21.0757 55.3856 21.1856C55.6789 21.2518 56.0254 21.1028 56.2327 20.767L59.3388 16.999L62.4448 20.767C62.6783 21.1028 63.0387 21.2518 63.4331 21.1856C63.6901 21.0757 63.898 20.8453 63.9979 20.6274L66.1157 12.6728C66.1157 12.5925 66.1295 12.457 66.1157 12.2541ZM82.4932 11.6959C81.2931 11.6618 80.231 12.1101 79.3871 12.8124V7.64885C79.3896 7.66745 79.4034 7.65386 79.3871 7.64885C79.4034 7.19193 79.0171 6.81152 78.54 6.81152C78.0791 6.81152 77.7067 7.17835 77.6929 7.64885C77.6929 7.65386 77.6929 7.66745 77.6929 7.64885C77.6929 7.66745 77.6929 7.68103 77.6929 7.64885V16.3012C77.7067 16.3625 77.6929 16.3897 77.6929 16.4408C77.6929 19.0526 79.8448 21.1856 82.4932 21.1856C85.1417 21.1856 87.2935 19.0526 87.2935 16.4408C87.2797 13.7812 85.1279 11.6618 82.4932 11.6959ZM82.4932 19.511C80.7814 19.511 79.3871 18.1389 79.3871 16.4408C79.3871 14.7427 80.7814 13.3706 82.4932 13.3706C84.205 13.3706 85.5993 14.7427 85.5993 16.4408C85.5993 18.1389 84.205 19.511 82.4932 19.511ZM89.5525 8.34662C89.088 8.34662 88.7054 8.72174 88.7054 9.18395C88.7054 9.64615 89.088 10.0213 89.5525 10.0213C90.0171 10.0213 90.3996 9.64615 90.3996 9.18395C90.3996 8.72174 90.0171 8.34662 89.5525 8.34662Z" fill="#333333"/>
<defs>
<linearGradient id="paint0_linear_6_1382" x1="-0.051049" y1="6.53424" x2="8.79972" y2="13.3253" gradientUnits="userSpaceOnUse">
<stop stop-color="#67337A"/>
<stop offset="1" stop-color="#723986"/>
</linearGradient>
<linearGradient id="paint1_linear_6_1382" x1="5.14998" y1="3.53854" x2="2.87729" y2="4.23337" gradientUnits="userSpaceOnUse">
<stop stop-color="#623274" stop-opacity="0.01"/>
<stop offset="1" stop-color="#542C65"/>
</linearGradient>
<linearGradient id="paint2_linear_6_1382" x1="5.86719" y1="13.104" x2="7.48275" y2="15.4112" gradientUnits="userSpaceOnUse">
<stop stop-color="#623274" stop-opacity="0.01"/>
<stop offset="1" stop-color="#542C65"/>
</linearGradient>
<linearGradient id="paint3_linear_6_1382" x1="35.5545" y1="-1.79951" x2="26.2676" y2="7.23418" gradientUnits="userSpaceOnUse">
<stop stop-color="#8A519F"/>
<stop offset="1" stop-color="#8A53A0"/>
</linearGradient>
<linearGradient id="paint4_linear_6_1382" x1="33.1186" y1="11.3028" x2="31.4646" y2="13.0156" gradientUnits="userSpaceOnUse">
<stop stop-color="#8A529F" stop-opacity="0.1"/>
<stop offset="1" stop-color="#542C65"/>
</linearGradient>
<linearGradient id="paint5_linear_6_1382" x1="27.8956" y1="21.4417" x2="36.9066" y2="24.5024" gradientUnits="userSpaceOnUse">
<stop stop-color="#5C2E6D"/>
<stop offset="1" stop-color="#6D377B"/>
</linearGradient>
<linearGradient id="paint6_linear_6_1382" x1="21.3372" y1="23.8723" x2="28.3146" y2="24.6251" gradientUnits="userSpaceOnUse">
<stop stop-color="#612E74"/>
<stop offset="1" stop-color="#7F4395"/>
</linearGradient>
<linearGradient id="paint7_linear_6_1382" x1="17.7966" y1="0.671143" x2="17.7966" y2="21.966" gradientUnits="userSpaceOnUse">
<stop stop-color="#582C6A"/>
<stop offset="1" stop-color="#743983"/>
</linearGradient>
<linearGradient id="paint8_linear_6_1382" x1="16.4932" y1="18.9696" x2="13.593" y2="18.879" gradientUnits="userSpaceOnUse">
<stop stop-color="#623274" stop-opacity="0.01"/>
<stop offset="1" stop-color="#542C65"/>
</linearGradient>
<linearGradient id="paint9_linear_6_1382" x1="18.1122" y1="0.671143" x2="18.1122" y2="21.1856" gradientUnits="userSpaceOnUse">
<stop stop-color="#723A85"/>
<stop offset="1" stop-color="#8C519C"/>
</linearGradient>
<linearGradient id="paint10_linear_6_1382" x1="6.04796" y1="21.2635" x2="15.1382" y2="21.995" gradientUnits="userSpaceOnUse">
<stop stop-color="#66397A"/>
<stop offset="1" stop-color="#9F69AB"/>
</linearGradient>
<linearGradient id="paint11_linear_6_1382" x1="9.32519" y1="15.2931" x2="6.38964" y2="16.1906" gradientUnits="userSpaceOnUse">
<stop stop-color="#623274" stop-opacity="0.01"/>
<stop offset="1" stop-color="#542C65"/>
</linearGradient>
<linearGradient id="paint12_linear_6_1382" x1="4.18474" y1="7.13051" x2="4.18474" y2="24.6776" gradientUnits="userSpaceOnUse">
<stop stop-color="#5D306E"/>
<stop offset="1" stop-color="#9F6AAA"/>
</linearGradient>
</defs>
</svg>
